<?xml version="1.0" encoding="UTF-8" standalone="no"?>
<!DOCTYPE svg PUBLIC "-//W3C//DTD SVG 1.1//EN"
 "http://www.w3.org/Graphics/SVG/1.1/DTD/svg11.dtd">
<!-- Generated by graphviz version 2.43.0 (0)
 -->
<!-- Title: snakemake_dag Pages: 1 -->
<svg width="224pt" height="188pt"
 viewBox="0.00 0.00 224.00 188.00" xmlns="http://www.w3.org/2000/svg" xmlns:xlink="http://www.w3.org/1999/xlink">
<g id="graph0" class="graph" transform="scale(1 1) rotate(0) translate(4 184)">
<title>snakemake_dag</title>
<polygon fill="white" stroke="transparent" points="-4,4 -4,-184 220,-184 220,4 -4,4"/>
<!-- 0 -->
<g id="node1" class="node">
<title>0</title>
<path fill="none" stroke="#56d8d8" stroke-width="2" d="M122.5,-36C122.5,-36 92.5,-36 92.5,-36 86.5,-36 80.5,-30 80.5,-24 80.5,-24 80.5,-12 80.5,-12 80.5,-6 86.5,0 92.5,0 92.5,0 122.5,0 122.5,0 128.5,0 134.5,-6 134.5,-12 134.5,-12 134.5,-24 134.5,-24 134.5,-30 128.5,-36 122.5,-36"/>
<text text-anchor="middle" x="107.5" y="-15.5" font-family="sans" font-size="10.00">all</text>
</g>
<!-- 1 -->
<g id="node2" class="node">
<title>1</title>
<path fill="none" stroke="#d85656" stroke-width="2" d="M87,-108C87,-108 12,-108 12,-108 6,-108 0,-102 0,-96 0,-96 0,-84 0,-84 0,-78 6,-72 12,-72 12,-72 87,-72 87,-72 93,-72 99,-78 99,-84 99,-84 99,-96 99,-96 99,-102 93,-108 87,-108"/>
<text text-anchor="middle" x="49.5" y="-93" font-family="sans" font-size="10.00">process_SRA</text>
<text text-anchor="middle" x="49.5" y="-82" font-family="sans" font-size="10.00">sra: SRR8615081</text>
</g>
<!-- 1&#45;&gt;0 -->
<g id="edge1" class="edge">
<title>1&#45;&gt;0</title>
<path fill="none" stroke="grey" stroke-width="2" d="M63.84,-71.7C70.79,-63.3 79.27,-53.07 86.9,-43.86"/>
<polygon fill="grey" stroke="grey" stroke-width="2" points="89.64,-46.04 93.33,-36.1 84.25,-41.57 89.64,-46.04"/>
</g>
<!-- 2 -->
<g id="node3" class="node">
<title>2</title>
<path fill="none" stroke="#59d856" stroke-width="2" d="M153.5,-180C153.5,-180 61.5,-180 61.5,-180 55.5,-180 49.5,-174 49.5,-168 49.5,-168 49.5,-156 49.5,-156 49.5,-150 55.5,-144 61.5,-144 61.5,-144 153.5,-144 153.5,-144 159.5,-144 165.5,-150 165.5,-156 165.5,-156 165.5,-168 165.5,-168 165.5,-174 159.5,-180 153.5,-180"/>
<text text-anchor="middle" x="107.5" y="-159.5" font-family="sans" font-size="10.00">generate_input_files</text>
</g>
<!-- 2&#45;&gt;1 -->
<g id="edge3" class="edge">
<title>2&#45;&gt;1</title>
<path fill="none" stroke="grey" stroke-width="2" d="M93.16,-143.7C86.21,-135.3 77.73,-125.07 70.1,-115.86"/>
<polygon fill="grey" stroke="grey" stroke-width="2" points="72.75,-113.57 63.67,-108.1 67.36,-118.04 72.75,-113.57"/>
</g>
<!-- 3 -->
<g id="node4" class="node">
<title>3</title>
<path fill="none" stroke="#d85656" stroke-width="2" d="M204,-108C204,-108 129,-108 129,-108 123,-108 117,-102 117,-96 117,-96 117,-84 117,-84 117,-78 123,-72 129,-72 129,-72 204,-72 204,-72 210,-72 216,-78 216,-84 216,-84 216,-96 216,-96 216,-102 210,-108 204,-108"/>
<text text-anchor="middle" x="166.5" y="-93" font-family="sans" font-size="10.00">process_SRA</text>
<text text-anchor="middle" x="166.5" y="-82" font-family="sans" font-size="10.00">sra: SRR8615087</text>
</g>
<!-- 2&#45;&gt;3 -->
<g id="edge4" class="edge">
<title>2&#45;&gt;3</title>
<path fill="none" stroke="grey" stroke-width="2" d="M122.08,-143.7C129.16,-135.3 137.78,-125.07 145.55,-115.86"/>
<polygon fill="grey" stroke="grey" stroke-width="2" points="148.31,-118.01 152.08,-108.1 142.96,-113.49 148.31,-118.01"/>
</g>
<!-- 3&#45;&gt;0 -->
<g id="edge2" class="edge">
<title>3&#45;&gt;0</title>
<path fill="none" stroke="grey" stroke-width="2" d="M151.92,-71.7C144.84,-63.3 136.22,-53.07 128.45,-43.86"/>
<polygon fill="grey" stroke="grey" stroke-width="2" points="131.04,-41.49 121.92,-36.1 125.69,-46.01 131.04,-41.49"/>
</g>
</g>
</svg>
